<mxfile host="app.diagrams.net" modified="2023-08-07T07:16:45.518Z" agent="Mozilla/5.0 (Macintosh; Intel Mac OS X 10_15_7) AppleWebKit/537.36 (KHTML, like Gecko) Chrome/114.0.0.0 Safari/537.36" version="21.6.6" etag="9LRUjYWewVVEMhIbKb-1" type="github">
  <diagram name="Page-1" id="-S0vMJgSOeUa3yra3O5a">
    <mxGraphModel>
      <root>
        <mxCell id="0" />
        <mxCell id="1" parent="0" />
      </root>
    </mxGraphModel>
  </diagram>
</mxfile>
